<?xml version="1.0" standalone="no"?>
<!DOCTYPE svg PUBLIC "-//W3C//DTD SVG 20010904//EN"
 "http://www.w3.org/TR/2001/REC-SVG-20010904/DTD/svg10.dtd">
<svg version="1.0" xmlns="http://www.w3.org/2000/svg"
 width="1536.000000pt" height="1536.000000pt" viewBox="0 0 1536.000000 1536.000000"
 preserveAspectRatio="xMidYMid meet">
<metadata>
Created by potrace 1.14, written by Peter Selinger 2001-2017
</metadata>
<g transform="translate(0.000000,1536.000000) scale(0.100000,-0.100000)"
fill="#000000" stroke="none">
<path d="M7348 15355 c-2 -2 -61 -6 -132 -9 -70 -4 -145 -9 -165 -11 -20 -2
-63 -7 -96 -10 -33 -3 -73 -7 -90 -9 -16 -2 -61 -7 -100 -10 -38 -4 -77 -9
-85 -11 -8 -2 -37 -6 -65 -10 -72 -8 -226 -33 -325 -51 -47 -9 -96 -18 -110
-20 -14 -3 -37 -7 -52 -10 -15 -3 -30 -5 -33 -5 -2 0 -19 -5 -37 -10 -18 -5
-46 -12 -63 -15 -24 -4 -119 -27 -325 -80 -289 -73 -798 -254 -1095 -389 -27
-12 -72 -32 -100 -44 -50 -22 -361 -177 -433 -216 -178 -96 -425 -244 -586
-351 -48 -32 -95 -63 -104 -69 -22 -14 -20 -12 -195 -140 -134 -98 -200 -148
-321 -245 -236 -189 -581 -514 -809 -762 -93 -102 -100 -109 -162 -183 -22
-26 -49 -57 -60 -69 -54 -61 -244 -303 -327 -416 -146 -199 -299 -431 -411
-625 -7 -11 -19 -31 -28 -45 -16 -26 -49 -85 -150 -272 -305 -566 -571 -1290
-709 -1932 -12 -54 -24 -108 -26 -120 -13 -59 -61 -333 -69 -396 -3 -25 -10
-70 -15 -100 -6 -30 -12 -85 -15 -121 -3 -37 -7 -75 -9 -86 -3 -11 -7 -56 -11
-99 -3 -43 -8 -92 -10 -109 -26 -204 -26 -1048 0 -1250 2 -16 7 -64 10 -105 3
-41 8 -84 10 -95 2 -11 7 -47 10 -80 8 -99 48 -361 81 -540 44 -238 132 -588
214 -850 22 -71 42 -134 44 -140 2 -5 6 -17 9 -25 3 -8 22 -60 41 -115 112
-327 314 -777 494 -1105 40 -73 198 -344 219 -375 7 -11 63 -96 125 -190 156
-238 407 -573 539 -720 15 -16 48 -55 74 -85 235 -272 620 -649 858 -840 11
-8 24 -19 31 -25 126 -110 410 -323 616 -461 291 -195 640 -396 944 -543 107
-52 381 -174 416 -186 3 -1 18 -7 33 -13 16 -7 30 -12 33 -12 2 0 23 -9 47
-19 160 -73 725 -255 917 -296 8 -2 42 -10 75 -19 33 -8 94 -22 135 -31 41 -9
84 -19 95 -21 11 -3 43 -9 70 -14 76 -14 98 -19 121 -24 12 -2 39 -7 60 -11
22 -3 50 -8 64 -10 68 -11 220 -34 263 -39 26 -3 68 -9 95 -12 26 -3 58 -7 72
-9 14 -2 61 -7 105 -10 44 -4 94 -8 111 -10 228 -26 1023 -26 1253 0 20 2 63
7 96 10 33 3 74 7 90 9 17 2 62 7 100 10 39 4 77 9 85 11 8 2 38 6 65 10 71 8
226 33 325 51 47 9 92 17 100 19 8 1 32 5 52 9 21 4 40 7 43 7 2 0 19 5 37 10
18 5 47 12 63 15 24 4 119 27 325 80 262 66 722 226 1005 349 340 148 612 286
905 460 108 64 499 318 537 349 10 8 65 49 123 92 91 67 346 268 360 283 3 4
36 33 75 66 38 33 83 71 99 85 202 174 569 553 770 795 32 39 65 79 75 90 130
157 313 407 448 612 168 255 216 335 365 608 73 134 258 517 273 565 1 3 6 16
13 30 35 78 84 199 121 300 24 63 47 124 52 135 26 60 180 555 194 625 2 8 15
61 29 117 22 87 33 134 62 268 7 32 46 238 50 265 7 46 14 85 18 105 5 24 23
153 31 213 3 23 7 59 10 80 6 50 13 121 20 212 4 41 8 80 10 87 18 56 27 845
12 1073 -9 131 -25 325 -32 385 -20 169 -22 188 -41 310 -15 104 -60 357 -78
440 -3 11 -12 54 -21 95 -50 236 -118 477 -218 775 -135 406 -328 848 -535
1225 -39 72 -198 344 -219 375 -7 11 -66 101 -132 200 -161 244 -399 562 -532
710 -15 17 -48 55 -74 85 -235 272 -620 649 -858 840 -11 8 -24 20 -31 25
-126 110 -410 323 -616 461 -373 251 -794 483 -1180 651 -180 79 -180 79 -240
102 -30 12 -64 26 -75 31 -145 65 -722 248 -895 285 -8 2 -42 10 -75 19 -33 8
-94 22 -135 31 -41 9 -84 19 -95 21 -11 3 -54 11 -95 19 -41 8 -85 16 -96 19
-12 2 -39 7 -60 11 -22 3 -50 8 -64 10 -93 15 -224 35 -275 41 -33 3 -68 8
-77 9 -9 2 -48 7 -85 10 -37 4 -79 8 -93 10 -14 2 -68 7 -120 10 -52 4 -117 9
-145 11 -55 5 -802 14 -807 9z"/>
</g>
</svg>
